<?xml version="1.0" encoding="utf-8"?>
<!-- Generator: Adobe Illustrator 25.4.1, SVG Export Plug-In . SVG Version: 6.00 Build 0)  -->
<svg version="1.1" id="Layer_1" xmlns="http://www.w3.org/2000/svg" xmlns:xlink="http://www.w3.org/1999/xlink" x="0px" y="0px"
	 viewBox="0 0 500 500" style="enable-background:new 0 0 500 500;" xml:space="preserve">
<style type="text/css">
	.st0{fill:#F7F7F7;}
	.st1{fill:#231F20;}
</style>
<g id="BACKGROUND">
</g>
<g id="OBJECTS">
	<g>
		<g>
			<ellipse class="st0" cx="248.39" cy="249.87" rx="245.97" ry="248.57"/>
			<g>
				<path class="st1" d="M250,496.1c21.34,0,42.04-2.71,61.79-7.83l3.85-7.18l13.01-20.82l-207.96-0.86
					C158.25,482.67,202.55,496.1,250,496.1z"/>
				<path class="st1" d="M250,500c-46.54,0-91.96-12.88-131.36-37.27c-1.48-0.91-2.19-2.71-1.69-4.4c0.47-1.67,2-2.84,3.75-2.84
					c0,0,0,0,0.03,0h207.96c1.41,0,2.71,1.64,3.41,2.89s0.65,2.76-0.1,3.96l-12.94,20.72l-3.77,7.08c-0.52,0.96-1.41,1.67-2.47,1.93
					C292.37,497.32,271.24,500,250,500z M135.35,463.35c35.11,18.9,74.47,28.84,114.65,28.84c20.02,0,39.9-2.45,59.16-7.29
					l3.05-5.67c0.05-0.08,0.08-0.16,0.13-0.23l9.29-14.89L135.35,463.35z"/>
			</g>
			<g>
				<g>
					<path class="st1" d="M250,500C112.16,500,0,387.84,0,250S112.16,0,250,0s250,112.16,250,250C500,387.84,387.84,500,250,500z
						 M250,7.81C116.45,7.81,7.81,116.45,7.81,250S116.45,492.19,250,492.19S492.19,383.55,492.19,250
						C492.19,116.45,383.52,7.81,250,7.81z"/>
				</g>
				<g>
					<path class="st1" d="M217.41,342.92c-0.08,0-0.18,0-0.26,0H98.88c-15.98-0.13-31.52-12.52-35.68-27.95l-25.35-94.04
						c-2.13-7.89-0.86-15.38,3.54-21.13c4.4-5.75,11.32-8.9,19.5-8.9h31.1c15.98,0,32.46,12.55,36.7,27.95l0,0l6.95,25.22
						c3.41,12.36,16.87,25.17,29.41,27.93l27.3,6.01c15.02,3.31,32.93,17.13,39.93,30.79l3.41,6.64c3.8,7.42,4.01,14.58,0.57,20.15
						C232.87,341.07,225.64,342.92,217.41,342.92z M60.88,198.67c-5.67,0-10.41,2.08-13.3,5.86c-2.89,3.77-3.67,8.88-2.19,14.37
						l25.35,94.04c3.25,12.08,16.55,22.36,29.07,22.44h118.27c5.52-0.03,9.6-0.75,11.56-3.9s1.61-7.57-0.88-12.47l-3.41-6.64
						c-5.99-11.66-21.84-23.92-34.64-26.73l-27.3-6.01c-15.28-3.36-31.1-18.38-35.27-33.47l-6.95-25.22
						c-3.33-12.05-16.68-22.23-29.18-22.23H60.88V198.67z"/>
				</g>
				<g>
					<path class="st1" d="M83.58,433.13c-0.39,0-0.75-0.05-1.15-0.18c-2.06-0.62-3.23-2.81-2.58-4.89l27.51-89.43
						c0.62-2.06,2.81-3.23,4.87-2.58c2.06,0.62,3.23,2.81,2.58,4.87L87.3,430.35C86.78,432.04,85.24,433.13,83.58,433.13z"/>
				</g>
				<g>
					<path class="st1" d="M231.42,443.91c-1.69,0-3.23-1.09-3.75-2.79l-29.18-98.49c-0.62-2.06,0.57-4.24,2.63-4.84
						c2.08-0.6,4.24,0.57,4.84,2.63l29.18,98.49c0.62,2.06-0.57,4.24-2.63,4.84C232.14,443.88,231.78,443.91,231.42,443.91z"/>
				</g>
				<g>
					<path class="st1" d="M214.26,385.55H100.21c-2.16,0-3.9-1.74-3.9-3.9c0-2.16,1.74-3.9,3.9-3.9h114.06c2.16,0,3.9,1.74,3.9,3.9
						C218.17,383.81,216.42,385.55,214.26,385.55z"/>
				</g>
				<g>
					<path class="st1" d="M484.83,324.21H325.48c-2.16,0-3.9-1.74-3.9-3.9v-56.74c0-2.16,1.74-3.9,3.9-3.9h169.1
						c2.16,0,3.9,1.74,3.9,3.9c0,2.16-1.74,3.9-3.9,3.9h-165.2v48.93h155.44c2.16,0,3.9,1.74,3.9,3.9S486.96,324.21,484.83,324.21z"
						/>
				</g>
				<g>
					<path class="st1" d="M318.58,489.3c-0.6,0-1.22-0.13-1.8-0.44c-1.93-0.99-2.65-3.36-1.67-5.26l84.67-163.95
						c0.68-1.3,2-2.11,3.46-2.11h36.86c1.33,0,2.58,0.68,3.28,1.8c0.73,1.12,0.81,2.52,0.26,3.75l-64.21,138.16
						c-0.91,1.95-3.23,2.81-5.18,1.9c-1.95-0.91-2.81-3.23-1.9-5.18l61.61-132.61h-28.34l-83.58,161.84
						C321.37,488.52,319.99,489.3,318.58,489.3z"/>
				</g>
				<g>
					<path class="st1" d="M413.17,66.37H171.29c0,0-13.9-0.7-13.77,8.59c0.13,9.32,13.77,7.44,13.77,7.44h254.5"/>
					<path class="st1" d="M168.58,86.49c-3.2,0-8.02-0.55-11.35-3.41c-2.32-1.98-3.57-4.76-3.62-8.04c-0.05-3.2,1.09-6.04,3.31-8.15
						c4.92-4.76,13.59-4.45,14.58-4.4h241.7c2.16,0,3.9,1.74,3.9,3.9c0,2.16-1.74,3.9-3.9,3.9H171.32c-1.8-0.08-6.85,0.18-8.95,2.24
						c-0.42,0.42-0.91,1.07-0.91,2.39c0.03,1.3,0.47,1.85,0.88,2.24c1.9,1.64,6.51,1.67,8.43,1.41c0.16-0.03,0.34-0.03,0.52-0.03
						h254.5c2.16,0,3.9,1.74,3.9,3.9s-1.74,3.9-3.9,3.9H171.53C170.98,86.39,169.94,86.49,168.58,86.49z"/>
				</g>
				<g>
					<path class="st1" d="M255.83,144.22H160.1c-6.09,0-11.06-4.97-11.06-11.06c0-6.12,4.97-11.06,11.06-11.06h95.73
						c6.12,0,11.06,4.97,11.06,11.06C266.89,139.28,261.92,144.22,255.83,144.22z M160.1,129.91c-1.8,0-3.25,1.46-3.25,3.25
						s1.46,3.25,3.25,3.25h95.73c1.8,0,3.25-1.46,3.25-3.25s-1.46-3.25-3.25-3.25H160.1z"/>
				</g>
				<g>
					<path class="st1" d="M160.1,129.91h-0.03c-2.16-0.03-3.9-1.77-3.88-3.93c0.29-42.19,49.45-45.11,49.95-45.13
						c2.11-0.13,3.98,1.54,4.09,3.7c0.1,2.16-1.54,3.98-3.7,4.09c-1.72,0.08-42.3,2.63-42.53,37.4
						C163.98,128.16,162.23,129.91,160.1,129.91z"/>
				</g>
				<g>
					<path class="st1" d="M254.97,129.91c-2.13,0-3.88-1.72-3.9-3.88c-0.23-34.88-40.81-37.32-42.53-37.4
						c-2.16-0.1-3.8-1.95-3.7-4.09c0.1-2.16,1.95-3.85,4.09-3.7c0.49,0.03,49.66,2.97,49.95,45.13c0.03,2.16-1.72,3.9-3.88,3.93
						C254.97,129.91,254.97,129.91,254.97,129.91z"/>
				</g>
				<g>
					<path class="st1" d="M438.96,409.63h-36.1c-2.16,0-3.9-1.74-3.9-3.9c0-2.16,1.74-3.9,3.9-3.9h36.1c2.16,0,3.9,1.74,3.9,3.9
						C442.87,407.89,441.12,409.63,438.96,409.63z"/>
				</g>
				<g>
					<path class="st1" d="M492.53,225.04H323.87c-2.16,0-3.9-1.74-3.9-3.9s1.74-3.9,3.9-3.9h168.66c2.16,0,3.9,1.74,3.9,3.9
						C496.43,223.3,494.69,225.04,492.53,225.04z"/>
				</g>
				<g>
					<path class="st1" d="M485.4,197.37H362.91c-2.16,0-3.9-1.74-3.9-3.9c0-2.16,1.74-3.9,3.9-3.9H485.4c2.16,0,3.9,1.74,3.9,3.9
						C489.3,195.63,487.53,197.37,485.4,197.37z"/>
				</g>
				<g>
					<path class="st1" d="M475.74,166.55h-80.82c-2.16,0-3.9-1.74-3.9-3.9s1.74-3.9,3.9-3.9h80.82c2.16,0,3.9,1.74,3.9,3.9
						C479.65,164.81,477.9,166.55,475.74,166.55z"/>
				</g>
				<g>
					<path class="st1" d="M183.97,324.26h-77.64c-16.5-0.99-24.41-14.08-26.31-20.85c-0.57-2.08,0.62-4.24,2.71-4.82
						c2.08-0.57,4.22,0.62,4.82,2.68c0.18,0.62,4.35,14.29,19.05,15.17h77.41c2.16,0,3.9,1.74,3.9,3.9S186.13,324.26,183.97,324.26z
						"/>
				</g>
				<path class="st1" d="M442.27,321.84c-0.7-1.12-1.93-1.8-3.25-1.82l-36.78-0.42c-1.48-0.03-2.84,0.81-3.51,2.11l-17.75,34.38
					c-0.62,1.2-0.57,2.65,0.13,3.83s1.98,1.87,3.33,1.87h38.73c1.51,0,2.89-0.88,3.54-2.26l15.8-33.97
					C443.05,324.36,442.97,322.96,442.27,321.84z"/>
				<g>
					<path class="st1" d="M290.03,305.18h-67.02c-2.16,0-3.25-2.73-3.25-4.89s-0.86-3.59,1.3-3.59h65.07v-187.4h-35.79
						c-2.16,0-2.92-1.09-2.92-3.25c0-2.16-1.17-4.55,0.99-4.55h41.64c2.16,0,3.9,1.74,3.9,3.9V300.6
						C293.94,302.79,292.19,305.18,290.03,305.18z"/>
				</g>
				<g>
					<path class="st1" d="M113.04,201.72c-2.16,0-3.9-1.74-3.9-3.9v-92.4c0-2.16,1.74-3.9,3.9-3.9h53.36c2.16,0,1.61,2.39,1.61,4.55
						s-1.43,3.25-3.59,3.25h-47.48l-0.31,94.69C116.63,206.14,115.2,201.72,113.04,201.72z"/>
				</g>
				<g>
					<path class="st1" d="M465.33,138.78H356.4c-2.16,0-3.9-1.74-3.9-3.9s1.74-3.9,3.9-3.9h108.93c2.16,0,3.9,1.74,3.9,3.9
						S467.49,138.78,465.33,138.78z"/>
				</g>
				<rect x="54.79" y="397.58" class="st1" width="306.82" height="7.5"/>
			</g>
		</g>
	</g>
</g>
</svg>
